<?xml version="1.0" encoding="utf-8"?>
<!-- Generator: Adobe Illustrator 24.0.1, SVG Export Plug-In . SVG Version: 6.00 Build 0)  -->
<svg version="1.1" id="Capa_1" xmlns="http://www.w3.org/2000/svg" xmlns:xlink="http://www.w3.org/1999/xlink" x="0px" y="0px"
	 viewBox="0 0 431.2 88.1" style="enable-background:new 0 0 431.2 88.1;" xml:space="preserve">
<style type="text/css">
	.st0{fill:#676767;}
	.st1{fill:#010202;}
</style>
<g>
	<path class="st0" d="M13.8,10h11.9c16.4,0,23.9,8.2,23.9,20.3s-7.4,20.6-23.9,20.6H13.8V10z M25.4,49.2c15.2,0,21.4-8.1,21.4-18.8
		c0-10.8-6.3-18.6-21.4-18.6h-9v37.4H25.4z"/>
	<path class="st0" d="M70.8,10h30.9v1.7H73.4v16.5h23.9V30H73.4v19.2h29.2v1.7H70.8V10z"/>
	<path class="st0" d="M119.8,10h2.7l10.3,24.6c2.1,5.1,3.5,8.8,5.8,13.8h0.3c2.3-5,3.7-8.7,5.8-13.8L155.1,10h2.6l-17.6,40.9h-2.6
		L119.8,10z"/>
	<path class="st0" d="M177.6,10h30.9v1.7h-28.4v16.5H204V30h-23.9v19.2h29.2v1.7h-31.8V10z"/>
	<path class="st0" d="M231.9,10h2.4v39.2h28.4v1.7h-30.8V10z"/>
	<path class="st0" d="M294.8,10h2.3l19,40.9h-2.7l-11.1-24.6c-2.3-5-4.2-9.2-6.1-14.3h-0.3c-1.9,5.1-3.9,9.3-6.1,14.3l-11.3,24.6
		h-2.6L294.8,10z M284,34.5h23.6v1.7H284V34.5z"/>
	<path class="st0" d="M346.9,29.7l-15-19.7h2.7l9.3,12.6c1.5,1.9,2.6,3.2,4.4,5.5h0.3c1.6-2.2,2.6-3.6,4-5.5l9.3-12.6h2.6l-15,19.8
		l16.1,21.1h-2.7l-9.8-13.1c-1.5-2-3.1-4-5-6.4h-0.3c-1.8,2.5-3.2,4.5-4.7,6.4l-9.8,13.1h-2.6L346.9,29.7z"/>
	<path class="st0" d="M384.3,10h2.7L409,40.1l5.9,7.9h0.2c-0.1-3.9-0.3-7.6-0.3-11.5V10h2.4v40.9h-2.7l-22.1-30.1l-5.9-7.9h-0.2
		c0.1,3.9,0.3,7.4,0.3,11.2v26.8h-2.4V10z"/>
</g>
<g>
	<path class="st1" d="M13.6,65.5h1l2.6,5.1l0.9,1.9h0.1l0.9-1.9l2.6-5.1h1v10.6h-0.7v-7.9c0-0.7,0-1.4,0.1-2h-0.1l-0.7,1.7l-2.8,5.4
		h-0.6L15,67.8l-0.8-1.7h0c0,0.7,0.1,1.4,0.1,2v7.9h-0.6V65.5z"/>
	<path class="st1" d="M28.2,70.7c0-3.3,2.1-5.4,5.1-5.4s5.1,2.1,5.1,5.4c0,3.3-2.1,5.5-5.1,5.5S28.2,74.1,28.2,70.7z M37.7,70.7
		c0-3-1.8-5-4.4-5s-4.4,1.9-4.4,5c0,3,1.8,5,4.4,5S37.7,73.8,37.7,70.7z"/>
	<path class="st1" d="M43.6,65.5h0.7l2.7,6.3c0.5,1.3,0.9,2.3,1.5,3.6h0.1c0.6-1.3,1-2.3,1.5-3.6l2.7-6.3h0.7l-4.5,10.6h-0.7
		L43.6,65.5z"/>
	<path class="st1" d="M59.8,75.6h3.6v-9.7h-3.6v-0.4h7.8v0.4h-3.6v9.7h3.6v0.4h-7.8V75.6z"/>
	<path class="st1" d="M74.5,65.5h1l2.6,5.1l0.9,1.9H79l0.9-1.9l2.6-5.1h1v10.6h-0.7v-7.9c0-0.7,0-1.4,0.1-2h-0.1L82,67.8l-2.8,5.4
		h-0.6l-2.8-5.4l-0.8-1.7h0c0,0.7,0.1,1.4,0.1,2v7.9h-0.6V65.5z"/>
	<path class="st1" d="M90.3,75.6h3.6v-9.7h-3.6v-0.4h7.8v0.4h-3.6v9.7h3.6v0.4h-7.8V75.6z"/>
	<path class="st1" d="M105.9,65.5h8v0.4h-7.3v4.3h6.2v0.4h-6.2v5h7.5v0.4h-8.2V65.5z"/>
	<path class="st1" d="M120.4,65.5h0.7l5.7,7.8l1.5,2h0c0-1-0.1-2-0.1-3v-6.9h0.6v10.6h-0.7l-5.7-7.8l-1.5-2h0c0,1,0.1,1.9,0.1,2.9
		v6.9h-0.6V65.5z"/>
	<path class="st1" d="M139.5,65.9h-4.9v-0.4h10.4v0.4h-4.9v10.1h-0.7V65.9z"/>
	<path class="st1" d="M150,70.7c0-3.3,2.1-5.4,5.1-5.4s5.1,2.1,5.1,5.4c0,3.3-2.1,5.5-5.1,5.5S150,74.1,150,70.7z M159.5,70.7
		c0-3-1.8-5-4.4-5s-4.4,1.9-4.4,5c0,3,1.8,5,4.4,5S159.5,73.8,159.5,70.7z"/>
	<path class="st1" d="M165.7,74.7l0.5-0.4c1,0.9,2.6,1.5,4.3,1.5c2.3,0,3.8-0.9,3.8-2.3c0-1.4-1.3-1.9-2.7-2.3l-2.1-0.7
		c-1.2-0.4-3-1-3-2.6c0-1.5,1.7-2.5,4.1-2.5c1.7,0,3.1,0.6,4,1.2l-0.4,0.4c-0.8-0.7-2-1.1-3.5-1.1c-2,0-3.4,0.8-3.4,2
		c0,1.3,1.6,1.8,2.6,2.1l2.1,0.7c1.6,0.5,3.1,1.2,3.1,2.8c0,1.6-1.8,2.8-4.5,2.8C168.4,76.3,166.8,75.6,165.7,74.7z"/>
	<path class="st1" d="M195.7,70.7c0-3.3,2.1-5.4,5.1-5.4s5.1,2.1,5.1,5.4c0,3.3-2.1,5.5-5.1,5.5S195.7,74.1,195.7,70.7z M205.1,70.7
		c0-3-1.8-5-4.4-5s-4.4,1.9-4.4,5c0,3.1,1.8,5.1,4.4,5.1S205.1,73.8,205.1,70.7z M200.3,76.1l0.7,0c0.4,1.1,1.5,1.8,3.4,1.8
		c0.4,0,0.7,0,1-0.1l0.1,0.5c-0.4,0.1-0.8,0.1-1.2,0.1C202.1,78.5,200.9,77.4,200.3,76.1z"/>
	<path class="st1" d="M211.7,72.1v-6.6h0.7V72c0,2.9,1.7,3.8,3.7,3.8c2,0,3.7-0.9,3.7-3.8v-6.5h0.6v6.6c0,3.3-2.2,4.1-4.3,4.1
		S211.7,75.4,211.7,72.1z"/>
	<path class="st1" d="M227.7,65.5h8v0.4h-7.3v4.3h6.2v0.4h-6.2v5h7.5v0.4h-8.2V65.5z"/>
	<path class="st1" d="M261.3,65.9h-4.9v-0.4h10.4v0.4H262v10.1h-0.7V65.9z"/>
	<path class="st1" d="M273.2,65.5h3.8c2.7,0,4.4,0.8,4.4,2.7c0,1.9-1.7,2.8-4.4,2.8h-3.1v5h-0.7V65.5z M276.8,70.6
		c2.5,0,4-0.8,4-2.4c0-1.7-1.4-2.3-4-2.3h-2.9v4.7H276.8z M277.6,70.9l4,5.2h-0.8l-4-5.2L277.6,70.9z"/>
	<path class="st1" d="M291.8,65.5h0.6l4.9,10.6h-0.7l-2.9-6.3c-0.6-1.3-1.1-2.4-1.6-3.7h-0.1c-0.5,1.3-1,2.4-1.6,3.7l-2.9,6.3h-0.7
		L291.8,65.5z M289,71.8h6.1v0.4H289V71.8z"/>
	<path class="st1" d="M303.1,65.5h0.7l5.7,7.8l1.5,2h0c0-1-0.1-2-0.1-3v-6.9h0.6v10.6h-0.7l-5.7-7.8l-1.5-2h0c0,1,0.1,1.9,0.1,2.9
		v6.9h-0.6V65.5z"/>
	<path class="st1" d="M318,74.7l0.5-0.4c1,0.9,2.6,1.5,4.3,1.5c2.3,0,3.8-0.9,3.8-2.3c0-1.4-1.3-1.9-2.7-2.3l-2.1-0.7
		c-1.2-0.4-3-1-3-2.6c0-1.5,1.7-2.5,4.1-2.5c1.7,0,3.1,0.6,4,1.2l-0.4,0.4c-0.8-0.7-2-1.1-3.5-1.1c-2,0-3.4,0.8-3.4,2
		c0,1.3,1.6,1.8,2.6,2.1l2.1,0.7c1.6,0.5,3.1,1.2,3.1,2.8c0,1.6-1.8,2.8-4.5,2.8C320.7,76.3,319.1,75.6,318,74.7z"/>
	<path class="st1" d="M334.8,65.5h7.9v0.4h-7.2v4.4h6.1v0.4h-6.1v5.2h-0.7V65.5z"/>
	<path class="st1" d="M347.9,70.7c0-3.3,2.1-5.4,5.1-5.4s5.1,2.1,5.1,5.4c0,3.3-2.1,5.5-5.1,5.5S347.9,74.1,347.9,70.7z M357.4,70.7
		c0-3-1.8-5-4.4-5s-4.4,1.9-4.4,5c0,3,1.8,5,4.4,5S357.4,73.8,357.4,70.7z"/>
	<path class="st1" d="M364.6,65.5h3.8c2.7,0,4.4,0.8,4.4,2.7c0,1.9-1.7,2.8-4.4,2.8h-3.1v5h-0.7V65.5z M368.1,70.6
		c2.5,0,4-0.8,4-2.4c0-1.7-1.4-2.3-4-2.3h-2.9v4.7H368.1z M369,70.9l4,5.2h-0.8l-4-5.2L369,70.9z"/>
	<path class="st1" d="M379,65.5h1l2.6,5.1l0.9,1.9h0.1l0.9-1.9l2.6-5.1h1v10.6h-0.7v-7.9c0-0.7,0-1.4,0.1-2h-0.1l-0.8,1.7l-2.8,5.4
		h-0.6l-2.8-5.4l-0.8-1.7h0c0,0.7,0.1,1.4,0.1,2v7.9H379V65.5z"/>
	<path class="st1" d="M398.4,65.5h0.6l4.9,10.6h-0.7l-2.9-6.3c-0.6-1.3-1.1-2.4-1.6-3.7h-0.1c-0.5,1.3-1,2.4-1.6,3.7l-2.9,6.3h-0.7
		L398.4,65.5z M395.6,71.8h6.1v0.4h-6.1V71.8z"/>
	<path class="st1" d="M409.7,65.5h0.7l5.7,7.8l1.5,2h0c0-1-0.1-2-0.1-3v-6.9h0.6v10.6h-0.7l-5.7-7.8l-1.5-2h0c0,1,0.1,1.9,0.1,2.9
		v6.9h-0.6V65.5z"/>
</g>
</svg>
